<svg fill="white" xmlns="http://www.w3.org/2000/svg" width="194.11" height="194.11"><path d="M184.245 157.992c-25.745-6.074-53.326-1.687-79.379-.104-32.725 1.987-66.251-1.479-98.513 5.445-.377.081-.571.319-.68.598-.598-.059-1.206.149-1.477.746-1.831 4.04-1.635 3.648-2.163 8.346-.113 1.007.828 2.188 1.806 2.371 33.12 6.22 70.148 2.298 103.556 1.013 18.135-.698 36.396-1.575 54.396-4.012 5.187-.702 20.321-1.053 22.148-8.097 3.028-.736 3.981-5.439.306-6.306zm-35.941 9.781c-18.164 1.896-36.442 2.785-54.684 3.512a1169.159 1169.159 0 01-55.455.871 672.78 672.78 0 01-19.937-.435 224.416 224.416 0 01-7.425-.417c-5.276-.375-4.293-.515-3.648-5.789 30.985.649 62.26-.445 93.241-1.294 25.805-.707 51.106-3.881 76.772-.639-5.251 2.622-25.239 3.814-28.864 4.191zM99.498 58.891c-2.252.022-4.512.16-6.773.334-1.727-6.999-8.708-12.892-15.989-11.581-7.755 1.396-9.514 9.469-7.723 16.049-36.892 11.231-67.821 41.511-62.46 82.677a3.736 3.736 0 00.247 3.425c-.409.673-.129 1.698.924 1.794.616.055 1.231.085 1.847.132 2.923 1.159 6.24.99 9.488.446 24.58.396 49.008-4.485 73.524-6.153 27.704-1.885 57.229-1.641 84.65 2.784 1.801.291 3.071-.964 3.426-2.345.876-.568 1.498-1.473 1.839-2.486.342-.202.651-.481.852-.944 20.904-48.518-43.436-84.521-83.852-84.132zm-20.002-4.688c.2-.128.376-.158.567-.249 2.891-.061 4.453 2.944 5.588 6.038-2.796.398-5.585.881-8.353 1.496-1.091-2.636-.281-5.7 2.198-7.285zm100.096 83.601c-.031-.012-.056-.028-.089-.038-31.147-9.94-63.847-6.279-95.752-2.503-14.897 1.763-29.904 2.166-44.786 4.141-8.925 1.185-18.968 5.562-28.039 5.354C14.94 98.421 48.94 70.449 95.27 66.83c37.606-2.938 93.202 27.412 84.322 70.974zM58.128 51.217C55.873 46.8 53.072 42.6 50.545 38.33c-2.019-3.411-3.954-8.499-7.142-10.973-2.911-2.259-8.44-.342-6.917 4.026 1.354 3.881 4.88 7.265 7.402 10.459 3.284 4.159 6.582 8.741 10.758 12.06 1.937 1.539 4.681-.337 3.482-2.685zM39.382 58.392a156.69 156.69 0 00-9.127-6.887c-2.98-2.075-5.897-4.669-9.079-6.399-3.866-2.102-8.193 3.078-4.8 6.221 5.466 5.062 13.847 8.701 20.96 10.579 1.902.502 3.759-2.128 2.046-3.514zM20.008 73.403c-3.01-.826-6.03-1.252-9.083-1.885-1.153-.239-2.37-.543-3.44-1.044-.139-.065-3.329-1.318-2.321-.658C2.438 68.032-.5 70.95.072 73.731c1.632 7.938 15.57 5.63 20.323 2.632 1.168-.738 1.001-2.58-.387-2.96zM133.106 15.333c-4.203.607-6.829 5.332-9.051 8.548-2.981 4.316-5.362 9.004-8.381 13.299-1.499 2.134 1.827 4.616 3.57 2.754 3.268-3.492 6.187-7.288 9.109-11.068 2.524-3.266 6.826-6.278 7.968-10.318.594-2.105-1.33-3.488-3.215-3.215zM153.257 25.257c-7.975 3.879-10.562 15.34-16.26 21.656-2.393 2.653.593 6.458 3.753 4.864 3.896-1.965 6.681-5.376 9.194-8.862 2.771-3.845 5.536-7.122 8.813-10.529 3.707-3.853-.946-9.343-5.5-7.129zM189.833 42.544c-2.925.094-5.437 1.561-8.147 2.569-3.177 1.181-6.353 2.316-9.472 3.646-5.234 2.232-9.877 6.233-10.205 12.197-.173 3.143 4.146 3.984 5.665 1.534 2.549-4.11 7.146-5.501 11.536-6.865 4.33-1.345 10.632-2.009 13.737-5.564 2.392-2.739.968-7.648-3.114-7.517z"/></svg>